
<svg width="1025px" height="1537px" viewBox="0 0 1025 1537" version="1.1" xmlns="http://www.w3.org/2000/svg" xmlns:xlink="http://www.w3.org/1999/xlink">
    <!-- Generator: Sketch 50.2 (55047) - http://www.bohemiancoding.com/sketch -->
    <desc>Created with Sketch.</desc>
    <defs></defs>
    <g id="Page-1" stroke="none" stroke-width="1" fill="none" fill-rule="evenodd">
        <g id="Map_marker_font_awesome" fill="red
        " fill-rule="nonzero">
            <g id="g3027" transform="translate(512.474580, 768.237300) scale(-1, 1) rotate(-180.000000) translate(-512.474580, -768.237300) translate(0.474580, 0.237300)">
                <path d="M1024,1024 C1024,951.333333 1013,891.666667 991,845 L627,71 C616.333333,49 600.5,31.6666667 579.5,19 C558.5,6.33333333 536,0 512,0 C488,0 465.5,6.33333333 444.5,19 C423.5,31.6666667 408,49 398,71 L33,845 C11,891.666667 0,951.333333 0,1024 C0,1165.33333 50,1286 150,1386 C250,1486 370.666667,1536 512,1536 C653.333333,1536 774,1486 874,1386 C974,1286 1024,1165.33333 1024,1024 Z" id="path3029"></path>
            </g>
        </g>
    </g>
</svg>
